# xmcd
#
# Track frame offsets: 
#        187
#        24950
#        42120
#        56517
#        77092
#        100107
#        118552
#        135252
#        156257
#        175145
#        193072
#        206742
#        227175
#        243027
#        260617
#
# Disc length: 3671 seconds
#
# Revision: 0
# Processed by: cddbd v1.5.2PL0 Copyright (c) Steve Scherf et al.
# Submitted via: ExactAudioCopy v1.0b3
#
DISCID=bd0e550f
DTITLE=The Stylistics - The Stylistics Disc 2 You Make Me Feel Brand N
DTITLE=ew (Silky Falsetto) VICG-58201-5
DYEAR=1900
DGENRE=Blues
TTITLE0=You Make Me Feel Brand New
TTITLE1=You're As Right As Rain
TTITLE2=Pieces
TTITLE3=Rockin' Roll Baby
TTITLE4=Love Comes Easy
TTITLE5=There's No Reason
TTITLE6=I Won't Give You Up
TTITLE7=Only For The Children
TTITLE8=Could This Be The End
TTITLE9=Let Them Work It Out
TTITLE10=Make It Last
TTITLE11=Pay Back Is A Dog
TTITLE12=Let's Put It All Together
TTITLE13=Doin' The Streets
TTITLE14=Shame And Scandal In The Family
EXTD=
EXTT0=
EXTT1=
EXTT2=
EXTT3=
EXTT4=
EXTT5=
EXTT6=
EXTT7=
EXTT8=
EXTT9=
EXTT10=
EXTT11=
EXTT12=
EXTT13=
EXTT14=
PLAYORDER=
